PathFileType  4	(X/Y/Z) C:\Users\wagnerel85475\Documents\Thesis\opencap-core\Data\3375ffbc-daeb-4a43-b4f7-ac9899cd4c71\MarkerData\PreAugmentation
DataRate	CameraRate	NumFrames	NumMarkers	Units	OrigDataRate	OrigDataStartFrame	OrigNumFrames
60.0	60.0	11	20	m	60.0	81	640
Frame#	Time	Neck			RShoulder			RElbow			RWrist			LShoulder			LElbow			LWrist			midHip			RHip			RKnee			RAnkle			LHip			LKnee			LAnkle			LBigToe			LSmallToe			LHeel			RBigToe			RSmallToe			RHeel			
		X1	Y1	Z1	X2	Y2	Z2	X3	Y3	Z3	X4	Y4	Z4	X5	Y5	Z5	X6	Y6	Z6	X7	Y7	Z7	X8	Y8	Z8	X9	Y9	Z9	X10	Y10	Z10	X11	Y11	Z11	X12	Y12	Z12	X13	Y13	Z13	X14	Y14	Z14	X15	Y15	Z15	X16	Y16	Z16	X17	Y17	Z17	X18	Y18	Z18	X19	Y19	Z19	X20	Y20	Z20	

81	1.3333333	0.5739400	1.3547200	-0.1011600	0.5810100	1.3577800	0.0860400	0.5356800	1.0584300	0.1758100	0.6570200	0.7803200	0.2199400	0.5745700	1.3532200	-0.2847800	0.5757200	1.1104000	-0.4294600	0.8762300	1.0159300	-0.4104500	0.6127800	0.7991900	-0.0881900	0.6188500	0.8046500	0.0369300	0.5748700	0.3235000	0.0338500	0.5225200	-0.1908800	0.0851000	0.6058600	0.7968400	-0.2094000	0.5390200	0.3064400	-0.2107800	0.5583000	-0.1856900	-0.2671100	0.7505300	-0.2419400	-0.3326600	0.7109900	-0.2481000	-0.3557900	0.5161100	-0.2303400	-0.2511100	0.6925100	-0.2484100	0.1788900	0.6647900	-0.2447600	0.1983800	0.4917100	-0.2344300	0.0671500
82	1.3500000	0.5740900	1.3545000	-0.1011600	0.5810700	1.3601800	0.0857400	0.5298200	1.0581400	0.1781300	0.6616500	0.7848300	0.2167900	0.5746700	1.3503400	-0.2844000	0.5646100	1.0970200	-0.4203300	0.8706900	0.9954600	-0.4081300	0.6134400	0.7985300	-0.0879700	0.6195000	0.8015700	0.0371500	0.5750500	0.3233500	0.0340400	0.5226800	-0.1949900	0.0858200	0.6166000	0.7952700	-0.2049400	0.5392900	0.3046600	-0.2104900	0.5584000	-0.1836500	-0.2668900	0.7497800	-0.2420700	-0.3329100	0.7103800	-0.2481200	-0.3559600	0.5101400	-0.2299200	-0.2535100	0.7013600	-0.2462600	0.1746000	0.6651300	-0.2459800	0.1986100	0.4970000	-0.2343100	0.0695400
83	1.3666667	0.5741100	1.3523200	-0.1011400	0.5810300	1.3577900	0.0860300	0.5307700	1.0599700	0.1784900	0.6666500	0.7858000	0.2145200	0.5693000	1.3509800	-0.2871100	0.5696500	1.0936400	-0.4131300	0.8575200	0.9760800	-0.3976800	0.6189700	0.7995200	-0.0862900	0.6143100	0.8015000	0.0393600	0.5695000	0.3246200	0.0366600	0.5288100	-0.1962000	0.0883400	0.6115500	0.7953900	-0.2072100	0.5391100	0.3022800	-0.2107700	0.5584300	-0.1835300	-0.2668000	0.7504600	-0.2419400	-0.3326700	0.7109500	-0.2480800	-0.3558000	0.5100100	-0.2300400	-0.2537000	0.6779100	-0.2554400	0.1872100	0.6595400	-0.2482600	0.2014600	0.4991800	-0.2398000	0.0705600
84	1.3833333	0.5743000	1.3521200	-0.1011200	0.5810700	1.3602000	0.0857500	0.5362100	1.0603200	0.1798900	0.6760100	0.7890300	0.2087700	0.5800600	1.3502900	-0.2866700	0.5688100	1.0930600	-0.4083900	0.8470400	0.9649900	-0.3933700	0.6136900	0.7962400	-0.0880900	0.6144700	0.8009000	0.0397700	0.5696500	0.3245100	0.0368300	0.5286700	-0.1954600	0.0872900	0.6055600	0.7939800	-0.2094600	0.5336800	0.3008900	-0.2083400	0.5584300	-0.1836700	-0.2668800	0.7497400	-0.2420600	-0.3329200	0.7103300	-0.2481200	-0.3559800	0.5162800	-0.2302500	-0.2509300	0.7061900	-0.2444900	0.1719700	0.6705600	-0.2427500	0.1955300	0.4916200	-0.2389300	0.0718600
85	1.4000000	0.5740600	1.3504000	-0.1011600	0.5806700	1.3585600	0.0859900	0.5371500	1.0622100	0.1802600	0.6866100	0.7906300	0.2083000	0.5801100	1.3487500	-0.2870500	0.5745300	1.0869600	-0.4058800	0.8528400	0.9512300	-0.3866200	0.6131200	0.7969400	-0.0882900	0.6139600	0.7996500	0.0395000	0.5745900	0.3257300	0.0340800	0.5286200	-0.1968900	0.0876900	0.6115800	0.7954300	-0.2072500	0.5390800	0.3040800	-0.2110000	0.5527000	-0.1855300	-0.2652100	0.7456700	-0.2436000	-0.3348700	0.7061200	-0.2476500	-0.3577100	0.5154800	-0.2280900	-0.2514800	0.7027200	-0.2460800	0.1783100	0.6749200	-0.2426600	0.1978000	0.4924800	-0.2401700	0.0720200
86	1.4166667	0.5742300	1.3501900	-0.1011500	0.5750600	1.3602500	0.0838200	0.5426100	1.0626000	0.1816600	0.6911400	0.7974500	0.2052700	0.5800800	1.3482200	-0.2867000	0.5744700	1.0865400	-0.4057600	0.8566200	0.9414800	-0.3840800	0.6185600	0.7991800	-0.0904200	0.6190600	0.8039800	0.0373300	0.5751700	0.3233200	0.0339800	0.5237100	-0.2008600	0.0906300	0.6109300	0.7967000	-0.2071100	0.5336400	0.3027100	-0.2085800	0.5526900	-0.1835300	-0.2649900	0.7499900	-0.2438400	-0.3325300	0.7104100	-0.2459500	-0.3556600	0.5155700	-0.2280100	-0.2513000	0.7023700	-0.2461400	0.1788900	0.6710100	-0.2438700	0.2002800	0.4918600	-0.2418300	0.0725500
87	1.4333333	0.5740500	1.3504100	-0.1011700	0.5747900	1.3603600	0.0840400	0.5434600	1.0626500	0.1821200	0.6913500	0.8081000	0.2056500	0.5801400	1.3487000	-0.2870500	0.5740200	1.0845100	-0.4012000	0.8384500	0.9373400	-0.3715100	0.6178800	0.7997500	-0.0906500	0.6131800	0.7995200	0.0349300	0.5749300	0.3234700	0.0338100	0.5294600	-0.1984600	0.0924300	0.6111900	0.7975000	-0.2117400	0.5336000	0.3028000	-0.2086500	0.5526800	-0.1855300	-0.2652200	0.7505200	-0.2418400	-0.3326700	0.7110400	-0.2459100	-0.3554700	0.5099400	-0.2298700	-0.2537200	0.7026500	-0.2460600	0.1783300	0.6705200	-0.2423100	0.2000400	0.4982600	-0.2408600	0.0700100
88	1.4500000	0.5741900	1.3501800	-0.1011600	0.5751900	1.3577600	0.0838500	0.5439200	1.0626500	0.1862200	0.6914700	0.8138300	0.2049500	0.5800800	1.3482200	-0.2867100	0.5683400	1.0839700	-0.3988800	0.8270900	0.9345900	-0.3670200	0.6188300	0.7968500	-0.0905400	0.6191900	0.7995800	0.0373400	0.5748400	0.3257300	0.0342300	0.5295100	-0.1971300	0.0920700	0.6110600	0.7946300	-0.2072200	0.5336200	0.3051200	-0.2083400	0.5526500	-0.1856700	-0.2653200	0.7600200	-0.2380600	-0.3320600	0.7107300	-0.2478200	-0.3552700	0.5100300	-0.2297600	-0.2535600	0.7071400	-0.2443500	0.1762500	0.6713600	-0.2419800	0.1999100	0.4971500	-0.2397100	0.0699200
89	1.4666667	0.5739900	1.3503800	-0.1011800	0.5748800	1.3578900	0.0840800	0.5508400	1.0630600	0.1884900	0.7019800	0.8195700	0.2045800	0.5803400	1.3464300	-0.2870100	0.5627000	1.0818200	-0.3967200	0.8330000	0.9348700	-0.3648400	0.6128300	0.7992400	-0.0881700	0.6185500	0.8027300	0.0370300	0.5745900	0.3258000	0.0340800	0.5345500	-0.1949000	0.0895100	0.6169400	0.7981400	-0.2048900	0.5335600	0.3052100	-0.2084100	0.5527300	-0.1833800	-0.2648900	0.7607600	-0.2380300	-0.3318300	0.7111000	-0.2459200	-0.3554700	0.5099800	-0.2300100	-0.2537300	0.7121700	-0.2425100	0.1730800	0.6695100	-0.2427300	0.1957600	0.4980300	-0.2394900	0.0697300
90	1.4833333	0.5742400	1.3501700	-0.1011500	0.5752300	1.3577700	0.0838600	0.5565800	1.0650400	0.1898200	0.7113600	0.8244700	0.1987200	0.5801400	1.3481800	-0.2866900	0.5574700	1.0811000	-0.3944400	0.8316300	0.9346800	-0.3602100	0.6136200	0.8006700	-0.0880800	0.6190800	0.8041600	0.0373800	0.5750700	0.3274800	0.0340100	0.5346800	-0.1935600	0.0891300	0.6107300	0.7987000	-0.2069900	0.5335600	0.3050800	-0.2083800	0.5526800	-0.1835500	-0.2649800	0.7596400	-0.2364900	-0.3281500	0.7105100	-0.2459800	-0.3556300	0.5051500	-0.2299300	-0.2554500	0.7120800	-0.2409800	0.1732400	0.6704500	-0.2425500	0.1955800	0.4970000	-0.2383500	0.0696200
91	1.5000000	0.5740400	1.3504000	-0.1011700	0.5800000	1.3578200	0.0814500	0.5525000	1.0648300	0.1929700	0.7323200	0.8272700	0.1974600	0.5801500	1.3486700	-0.2870500	0.5632600	1.0792500	-0.3922000	0.8331000	0.9346900	-0.3603200	0.6070500	0.8031200	-0.0854400	0.6078900	0.8083500	0.0423800	0.5745000	0.3257100	0.0341100	0.5294000	-0.1966700	0.0921100	0.6057100	0.7989000	-0.2092500	0.5335700	0.3052300	-0.2084100	0.5528300	-0.1811800	-0.2645500	0.7555400	-0.2381500	-0.3301200	0.7113000	-0.2439200	-0.3551200	0.5050200	-0.2298900	-0.2556300	0.7123600	-0.2408300	0.1726900	0.6696000	-0.2427900	0.1957200	0.4925100	-0.2400100	0.0720500
